<svg width="19" height="19" viewBox="0 0 19 19" fill="none" xmlns="http://www.w3.org/2000/svg">
<path d="M9.49111 18.7422C14.4745 18.7422 18.5878 14.6289 18.5878 9.6543C18.5878 4.67969 14.4657 0.566406 9.48232 0.566406C4.50772 0.566406 0.403223 4.67969 0.403223 9.6543C0.403223 14.6289 4.5165 18.7422 9.49111 18.7422ZM9.49111 16.9316C5.45693 16.9316 2.23135 13.6885 2.23135 9.6543C2.23135 5.62012 5.45693 2.38574 9.48232 2.38574C13.5165 2.38574 16.7597 5.62012 16.7685 9.6543C16.7772 13.6885 13.5253 16.9316 9.49111 16.9316ZM6.24795 10.4893H8.65615V12.9062C8.65615 13.3896 8.99893 13.7324 9.47354 13.7324C9.96572 13.7324 10.3173 13.3896 10.3173 12.9062V10.4893H12.7343C13.2177 10.4893 13.5692 10.1465 13.5692 9.66309C13.5692 9.17969 13.2265 8.82812 12.7343 8.82812H10.3173V6.41113C10.3173 5.91895 9.96572 5.57617 9.47354 5.57617C8.99893 5.57617 8.65615 5.91895 8.65615 6.41113V8.82812H6.24795C5.74697 8.82812 5.4042 9.17969 5.4042 9.66309C5.4042 10.1465 5.75576 10.4893 6.24795 10.4893Z" fill="#1C1C1E"/>
</svg>

