<svg width="318" height="236" viewBox="0 0 318 236" fill="none" xmlns="http://www.w3.org/2000/svg">
<path d="M230.72 98.0388H82.9052C77.7144 98.0388 73.5063 102.247 73.5063 107.438V186.212C73.5063 191.403 77.7144 195.611 82.9052 195.611H230.72C235.911 195.611 240.119 191.403 240.119 186.212V107.438C240.119 102.247 235.911 98.0388 230.72 98.0388Z" fill="white"/>
<path d="M230.709 196.118H82.9052C80.2787 196.116 77.7605 195.071 75.9033 193.214C74.046 191.357 73.0015 188.838 72.9988 186.212V107.448C73.0015 104.82 74.0457 102.301 75.9026 100.442C77.7596 98.5836 80.2777 97.5367 82.9052 97.5314H230.709C233.337 97.5367 235.855 98.5836 237.712 100.442C239.569 102.301 240.613 104.82 240.616 107.448V186.212C240.613 188.838 239.569 191.357 237.711 193.214C235.854 195.071 233.336 196.116 230.709 196.118V196.118ZM82.9052 98.5464C80.5461 98.5491 78.2846 99.4881 76.6174 101.157C74.9502 102.826 74.0138 105.089 74.0138 107.448V186.212C74.0165 188.569 74.9541 190.829 76.621 192.496C78.2879 194.163 80.5479 195.101 82.9052 195.103H230.709C233.067 195.101 235.327 194.163 236.994 192.496C238.661 190.829 239.598 188.569 239.601 186.212V107.448C239.601 105.089 238.664 102.826 236.997 101.157C235.33 99.4881 233.069 98.5491 230.709 98.5464H82.9052Z" fill="#231F20"/>
<path d="M182.771 160.776H130.854C129.049 160.776 127.585 162.239 127.585 164.044V185.441C127.585 187.246 129.049 188.709 130.854 188.709H182.771C184.576 188.709 186.039 187.246 186.039 185.441V164.044C186.039 162.239 184.576 160.776 182.771 160.776Z" fill="white"/>
<path d="M182.771 189.216H130.844C129.844 189.214 128.886 188.815 128.18 188.107C127.475 187.399 127.078 186.44 127.078 185.441V164.034C127.078 163.035 127.475 162.078 128.181 161.371C128.887 160.665 129.845 160.269 130.844 160.269H182.771C183.77 160.269 184.728 160.665 185.434 161.371C186.14 162.078 186.537 163.035 186.537 164.034V185.441C186.537 186.44 186.14 187.399 185.435 188.107C184.729 188.815 183.771 189.214 182.771 189.216V189.216ZM130.844 161.284C130.114 161.284 129.415 161.573 128.899 162.089C128.383 162.605 128.093 163.305 128.093 164.034V185.441C128.092 185.803 128.162 186.161 128.3 186.496C128.437 186.831 128.64 187.136 128.895 187.392C129.151 187.649 129.454 187.852 129.789 187.991C130.123 188.13 130.482 188.201 130.844 188.201H182.771C183.133 188.201 183.492 188.13 183.826 187.991C184.161 187.852 184.464 187.649 184.72 187.392C184.975 187.136 185.178 186.831 185.315 186.496C185.453 186.161 185.523 185.803 185.522 185.441V164.034C185.522 163.305 185.232 162.605 184.716 162.089C184.2 161.573 183.501 161.284 182.771 161.284H130.844Z" fill="#D1D3D4"/>
<path d="M225.229 104.941H88.3863C85.505 104.941 83.1692 107.277 83.1692 110.158V147.896C83.1692 150.777 85.505 153.113 88.3863 153.113H225.229C228.11 153.113 230.446 150.777 230.446 147.896V110.158C230.446 107.277 228.11 104.941 225.229 104.941Z" fill="white"/>
<path d="M225.229 153.62H88.3862C86.8688 153.618 85.4143 153.014 84.3413 151.941C83.2683 150.868 82.6643 149.413 82.6616 147.896V110.168C82.6616 108.649 83.2644 107.192 84.3377 106.117C85.411 105.041 86.867 104.436 88.3862 104.433H225.229C226.748 104.436 228.204 105.041 229.277 106.117C230.35 107.192 230.953 108.649 230.953 110.168V147.896C230.95 149.413 230.346 150.868 229.273 151.941C228.2 153.014 226.746 153.618 225.229 153.62ZM88.3862 105.448C87.1362 105.451 85.9383 105.949 85.0554 106.834C84.1725 107.719 83.6766 108.918 83.6766 110.168V147.896C83.6766 149.145 84.1728 150.343 85.056 151.226C85.9393 152.109 87.1372 152.605 88.3862 152.605H225.229C226.478 152.605 227.675 152.109 228.559 151.226C229.442 150.343 229.938 149.145 229.938 147.896V110.168C229.938 108.918 229.442 107.719 228.559 106.834C227.676 105.949 226.479 105.451 225.229 105.448H88.3862Z" fill="#D1D3D4"/>
<path d="M85.5847 203H120.277C121.214 200.722 122.338 198.525 123.637 196.433C129.159 188.607 136.761 183.776 140.892 172.733C145.023 161.689 146.414 152.94 143.186 151.326C139.958 149.712 136.081 162.603 131.909 165.831C131.909 165.831 128.773 150.332 131.3 143.43C133.828 136.528 138.994 131.351 138.304 127.19C137.614 123.028 135.695 124.145 132.61 126.763C130.996 128.144 128.306 132.589 128.306 132.589C128.564 130.329 129.323 128.155 130.529 126.225C133.675 121.546 126.235 119.476 120.714 127.758C120.714 127.758 122.866 119.242 118.684 121.77C114.502 124.297 110.239 134.051 110.239 134.051C110.239 134.051 112.543 121.161 107.255 124.612C101.967 128.063 99.9673 144.637 100.657 152.017C101.348 159.396 102.89 176.488 98.2012 182.629C96.7091 184.639 91.6646 192.85 85.5847 203Z" fill="white"/>
<path d="M120.277 203.508H85.5847C85.4948 203.507 85.4066 203.483 85.3284 203.439C85.2503 203.394 85.1848 203.331 85.1381 203.254C85.0906 203.176 85.0654 203.086 85.0654 202.995C85.0654 202.904 85.0906 202.814 85.1381 202.736C92.2431 190.993 96.4655 184.121 97.8357 182.314C102.464 176.224 100.82 158.685 100.201 152.067C99.4699 144.292 101.5 127.809 107.011 124.206C108.158 123.465 109.123 123.333 109.874 123.84C111.386 124.855 111.416 128.367 111.183 131.037C112.807 127.91 115.629 123.089 118.461 121.364C119.476 120.734 120.308 120.643 120.917 121.1C121.932 121.851 121.871 123.992 121.637 125.708C124.307 122.571 127.118 121.526 129.047 121.648C129.555 121.645 130.054 121.777 130.494 122.033C130.933 122.288 131.295 122.656 131.544 123.099C131.76 123.672 131.819 124.291 131.715 124.895C131.612 125.498 131.349 126.062 130.955 126.53C130.248 127.614 129.707 128.797 129.351 130.042C130.185 128.721 131.166 127.498 132.275 126.398C134.406 124.571 135.878 123.597 137.086 124.043C137.959 124.358 138.497 125.332 138.801 127.088C139.238 129.717 137.543 132.62 135.584 135.99C134.096 138.397 132.822 140.931 131.777 143.562C129.666 149.317 131.635 161.436 132.244 164.806C133.988 162.683 135.476 160.363 136.68 157.893C139.075 153.498 141.156 149.702 143.419 150.788C148.139 153.153 143.551 167.028 141.389 172.824C138.639 180.152 134.376 184.801 130.224 189.287C128.011 191.608 125.947 194.066 124.043 196.646C122.761 198.71 121.651 200.876 120.724 203.122C120.699 203.225 120.643 203.317 120.562 203.386C120.482 203.455 120.383 203.498 120.277 203.508ZM86.4779 202.493H119.973C120.89 200.288 121.987 198.163 123.251 196.139C125.183 193.523 127.282 191.034 129.534 188.689C133.594 184.263 137.786 179.696 140.466 172.55C144.759 161.101 145.734 153.143 143.013 151.783C141.623 151.073 139.491 154.98 137.614 158.421C135.919 161.537 134.152 164.765 132.275 166.227C132.208 166.282 132.127 166.317 132.041 166.33C131.955 166.342 131.867 166.331 131.787 166.298C131.706 166.27 131.634 166.222 131.577 166.158C131.52 166.094 131.481 166.016 131.463 165.932C131.341 165.293 128.326 150.21 130.874 143.257C131.937 140.569 133.238 137.98 134.761 135.523C136.619 132.326 138.223 129.565 137.806 127.291C137.583 125.962 137.218 125.16 136.791 124.987C136.01 124.713 134.498 125.87 132.985 127.169C131.473 128.469 128.824 132.833 128.793 132.874C128.735 132.972 128.645 133.047 128.538 133.088C128.431 133.128 128.313 133.131 128.205 133.097C128.096 133.06 128.003 132.988 127.938 132.893C127.874 132.797 127.843 132.684 127.849 132.569C128.113 130.22 128.904 127.962 130.163 125.962C130.451 125.638 130.651 125.246 130.743 124.823C130.835 124.4 130.818 123.96 130.691 123.546C130.517 123.267 130.273 123.038 129.982 122.883C129.692 122.728 129.366 122.652 129.037 122.663C127.159 122.521 123.962 123.881 121.191 128.063C121.124 128.162 121.025 128.234 120.91 128.267C120.795 128.3 120.673 128.291 120.564 128.243C120.455 128.195 120.366 128.109 120.314 128.002C120.261 127.895 120.249 127.772 120.277 127.657C120.775 125.627 121.14 122.49 120.359 121.912C120.044 121.678 119.394 122.013 119.039 122.226C115.07 124.652 110.838 134.183 110.797 134.274C110.748 134.388 110.659 134.479 110.547 134.532C110.434 134.584 110.307 134.594 110.188 134.559C110.07 134.519 109.97 134.44 109.905 134.334C109.84 134.228 109.815 134.103 109.833 133.98C110.391 130.874 110.747 125.606 109.356 124.683C108.98 124.429 108.341 124.551 107.62 125.058C102.698 128.266 100.515 144.435 101.256 151.976C101.946 159.325 103.56 176.559 98.6985 182.933C97.3384 184.669 93.2378 191.246 86.4779 202.493V202.493Z" fill="#231F20"/>
<path d="M182.426 142.222C180.284 140.689 177.828 145.906 179.381 153.58C180.934 161.253 190.12 177.513 197.174 184.263C199.031 186.029 201.823 191.957 204.949 199.732H238.657C230.354 184.04 223.259 170.693 222.65 169.84C221.108 167.688 219.494 154.067 219.92 146.059C220.268 138.733 219.73 131.392 218.316 124.195C217.23 119.435 215.515 117.872 213.13 117.872C210.744 117.872 211.932 127.322 211.932 127.322C210.856 121.688 207.172 115.192 203.924 114.543C200.676 113.893 204.644 125.86 204.644 125.86C203.345 122.399 196.26 111.325 193.114 113.081C192.099 113.65 189.531 114.401 193.642 121.983C197.752 129.565 197.702 133.686 197.702 133.686C189.145 119.07 182.477 119.567 180.365 122.632C178.254 125.698 183.735 127.545 188.039 134.051C192.342 140.557 189.876 157 189.876 157C185.187 153.884 184.578 143.754 182.426 142.222ZM212.389 129.605V129.494V129.605ZM212.318 129.24L212.216 128.692L212.318 129.24ZM212.155 128.367C212.155 128.205 212.094 128.032 212.054 127.839L212.155 128.367Z" fill="white"/>
<path d="M238.637 200.239H204.929C204.827 200.238 204.729 200.206 204.645 200.148C204.562 200.091 204.498 200.009 204.462 199.914C201.011 191.328 198.433 186.181 196.809 184.629C189.876 178.001 180.487 161.801 178.863 153.671C177.625 147.49 178.863 142.922 180.68 141.755C180.981 141.549 181.339 141.443 181.703 141.452C182.068 141.462 182.42 141.585 182.71 141.806C183.725 142.526 184.324 144.546 185.106 147.104C186.06 150.22 187.227 154.036 189.389 156.006C189.815 152.544 191.094 139.766 187.511 134.285C186.028 132.122 184.298 130.139 182.355 128.377C180.01 126.114 178.295 124.48 179.848 122.287C180.313 121.629 180.941 121.102 181.67 120.758C182.399 120.415 183.206 120.267 184.009 120.328C186.293 120.42 190.871 122.013 196.758 131.27C195.977 128.073 194.757 124.999 193.134 122.135C191.185 118.552 190.485 116.045 190.962 114.441C191.097 114.04 191.316 113.671 191.605 113.361C191.894 113.051 192.246 112.807 192.637 112.645L192.809 112.543C193.121 112.38 193.466 112.29 193.817 112.279C194.169 112.269 194.519 112.338 194.839 112.482C197.357 113.406 200.625 117.71 202.828 121.293C202.188 118.542 201.752 115.466 202.685 114.411C202.851 114.228 203.063 114.094 203.299 114.022C203.535 113.951 203.786 113.945 204.025 114.005C206.705 114.543 209.455 118.451 211.13 122.754C211.13 120.724 211.323 118.694 212.084 117.811C212.209 117.662 212.364 117.542 212.539 117.458C212.714 117.374 212.905 117.328 213.099 117.324C215.972 117.324 217.718 119.354 218.773 124.043C220.2 131.286 220.745 138.675 220.397 146.048C219.961 154.168 221.656 167.577 223.026 169.505C223.574 170.266 228.822 180.061 239.073 199.448C239.116 199.523 239.138 199.609 239.138 199.696C239.138 199.783 239.116 199.869 239.073 199.945C239.033 200.028 238.971 200.099 238.894 200.15C238.818 200.202 238.729 200.233 238.637 200.239V200.239ZM205.274 199.224H237.754C225.523 176.092 222.529 170.622 222.173 170.134C220.529 167.83 218.915 154.087 219.352 146.028C219.698 138.75 219.163 131.457 217.758 124.307C216.571 119.08 214.713 118.38 213.069 118.38C213.013 118.38 212.957 118.394 212.908 118.42C212.858 118.447 212.816 118.485 212.785 118.532C211.831 119.608 212.023 124.449 212.379 127.251V127.322C212.399 127.391 212.399 127.465 212.379 127.535C212.422 127.591 212.45 127.658 212.46 127.728L212.561 128.255C212.572 128.309 212.572 128.364 212.561 128.418C212.592 128.467 212.613 128.523 212.622 128.58L212.734 129.118C212.707 129.201 212.707 129.29 212.734 129.372V129.372H212.663L212.734 129.463C212.739 129.49 212.739 129.518 212.734 129.545C212.734 129.545 212.734 129.545 212.734 129.545C212.724 129.651 212.68 129.752 212.609 129.832C212.537 129.912 212.443 129.968 212.338 129.991C212.239 130.01 212.136 130 212.043 129.962C211.949 129.924 211.869 129.86 211.81 129.778V129.778C211.805 129.748 211.805 129.717 211.81 129.687C211.804 129.66 211.804 129.632 211.81 129.605V129.605V129.514C211.805 129.47 211.805 129.426 211.81 129.382C211.787 129.341 211.77 129.296 211.759 129.25L211.749 128.905V128.824C211.744 128.783 211.744 128.743 211.749 128.702C211.708 128.645 211.68 128.579 211.668 128.509L211.567 127.981C211.556 127.918 211.556 127.852 211.567 127.789C211.531 127.733 211.507 127.671 211.496 127.606V127.606C211.489 127.59 211.489 127.571 211.496 127.555C210.379 121.77 206.685 115.751 203.883 115.192C203.629 115.142 203.548 115.192 203.508 115.284C202.584 116.299 203.924 122.054 205.162 125.799C205.194 125.922 205.178 126.053 205.118 126.165C205.058 126.276 204.958 126.362 204.839 126.404C204.719 126.446 204.587 126.442 204.471 126.392C204.354 126.342 204.26 126.25 204.208 126.134C203.071 123.089 197.813 114.827 194.545 113.629C194.368 113.543 194.174 113.498 193.977 113.498C193.78 113.498 193.585 113.543 193.408 113.629L193.205 113.731C192.935 113.833 192.69 113.993 192.488 114.2C192.286 114.407 192.133 114.655 192.038 114.929C191.642 116.228 192.343 118.552 194.129 121.841C198.26 129.453 198.189 133.625 198.189 133.797C198.184 133.908 198.144 134.013 198.074 134.099C198.005 134.185 197.91 134.246 197.803 134.274C197.697 134.302 197.585 134.295 197.485 134.252C197.384 134.21 197.299 134.136 197.245 134.041C190.982 123.343 186.283 121.597 184.05 121.506C183.416 121.448 182.779 121.559 182.202 121.826C181.624 122.094 181.128 122.508 180.761 123.028C179.746 124.439 180.761 125.515 183.147 127.799C185.14 129.616 186.915 131.66 188.435 133.889C192.789 140.486 190.465 156.513 190.353 157.234C190.342 157.318 190.309 157.398 190.257 157.466C190.206 157.533 190.137 157.586 190.059 157.619C189.984 157.659 189.9 157.68 189.815 157.68C189.73 157.68 189.647 157.659 189.572 157.619C186.679 155.691 185.319 151.225 184.223 147.642C183.553 145.46 182.923 143.399 182.193 142.882C182.065 142.779 181.905 142.722 181.741 142.722C181.577 142.722 181.417 142.779 181.289 142.882C180.031 143.704 178.711 147.723 179.919 153.752C181.482 161.568 190.881 177.777 197.57 184.202C199.245 185.552 201.782 190.566 205.274 199.224Z" fill="#231F20"/>
<path d="M127.586 199.732C126.763 199.732 89.5941 187.105 89.5941 187.105C89.5941 187.105 72.6944 217.626 67.5483 227.167L116.451 235.013L127.586 199.732Z" fill="#5AC8FA"/>
<path d="M234.343 184.923L195.215 192.221L205.842 230.111L255.506 226.345L234.343 184.923Z" fill="#5AC8FA"/>
<path d="M230.72 0.466919H82.9052C77.7144 0.466919 73.5063 4.67495 73.5063 9.86582V88.64C73.5063 93.8308 77.7144 98.0389 82.9052 98.0389H230.72C235.911 98.0389 240.119 93.8308 240.119 88.64V9.86582C240.119 4.67495 235.911 0.466919 230.72 0.466919Z" fill="white"/>
<path d="M230.709 98.5463H82.9052C80.2787 98.5437 77.7605 97.4991 75.9033 95.6419C74.046 93.7846 73.0015 91.2665 72.9988 88.64V9.8658C73.0122 7.24633 74.0615 4.73856 75.9175 2.8901C77.7736 1.04164 80.2857 0.00264688 82.9052 0H230.709C233.336 0.00268697 235.854 1.04726 237.711 2.90448C239.569 4.76171 240.613 7.27988 240.616 9.9064V88.6806C240.602 91.3 239.553 93.8078 237.697 95.6563C235.841 97.5047 233.329 98.5437 230.709 98.5463V98.5463ZM82.9052 1.015C80.5479 1.01769 78.2879 1.95532 76.621 3.6222C74.9541 5.28908 74.0165 7.54908 74.0138 9.9064V88.6806C74.0165 91.0379 74.9541 93.2979 76.621 94.9648C78.2879 96.6316 80.5479 97.5693 82.9052 97.572H230.709C233.067 97.5693 235.327 96.6316 236.994 94.9648C238.661 93.2979 239.598 91.0379 239.601 88.6806V9.8658C239.587 7.51553 238.645 5.26593 236.979 3.60781C235.314 1.94969 233.06 1.01764 230.709 1.015H82.9052Z" fill="#231F20"/>
<path d="M233.206 8.74927H81.7886V90.2132H233.206V8.74927Z" fill="#5AC8FA"/>
<path d="M233.206 90.7207H81.8293C81.6947 90.7207 81.5656 90.6673 81.4704 90.5721C81.3752 90.4769 81.3218 90.3478 81.3218 90.2132V8.74932C81.3218 8.61472 81.3752 8.48564 81.4704 8.39046C81.5656 8.29529 81.6947 8.24182 81.8293 8.24182H233.206C233.341 8.24182 233.47 8.29529 233.565 8.39046C233.66 8.48564 233.714 8.61472 233.714 8.74932V90.2132C233.714 90.3478 233.66 90.4769 233.565 90.5721C233.47 90.6673 233.341 90.7207 233.206 90.7207ZM82.2962 89.7057H232.699V9.25682H82.2962V89.7057Z" fill="#231F20"/>
<path d="M233.206 19.082H81.8293C81.6947 19.082 81.5656 19.0285 81.4704 18.9334C81.3752 18.8382 81.3218 18.7091 81.3218 18.5745C81.3218 18.4399 81.3752 18.3108 81.4704 18.2157C81.5656 18.1205 81.6947 18.067 81.8293 18.067H233.206C233.341 18.067 233.47 18.1205 233.565 18.2157C233.66 18.3108 233.714 18.4399 233.714 18.5745C233.714 18.7091 233.66 18.8382 233.565 18.9334C233.47 19.0285 233.341 19.082 233.206 19.082Z" fill="#231F20"/>
<path d="M87.5641 15.1742C88.4891 15.1742 89.2389 14.4244 89.2389 13.4995C89.2389 12.5745 88.4891 11.8247 87.5641 11.8247C86.6392 11.8247 85.8894 12.5745 85.8894 13.4995C85.8894 14.4244 86.6392 15.1742 87.5641 15.1742Z" fill="#231F20"/>
<path d="M87.5641 15.6818C87.1325 15.6818 86.7106 15.5538 86.3517 15.314C85.9928 15.0742 85.7131 14.7334 85.5479 14.3346C85.3828 13.9359 85.3396 13.4971 85.4238 13.0738C85.508 12.6505 85.7158 12.2616 86.021 11.9564C86.3262 11.6512 86.715 11.4434 87.1384 11.3592C87.5617 11.275 88.0004 11.3182 88.3992 11.4834C88.7979 11.6485 89.1388 11.9282 89.3786 12.2871C89.6183 12.646 89.7463 13.0679 89.7463 13.4995C89.7477 13.7865 89.6922 14.0708 89.583 14.3362C89.4738 14.6016 89.3131 14.8427 89.1102 15.0456C88.9073 15.2485 88.6662 15.4092 88.4008 15.5184C88.1354 15.6276 87.851 15.6831 87.5641 15.6818V15.6818ZM87.5641 12.3424C87.3328 12.3424 87.1067 12.4111 86.9146 12.5399C86.7224 12.6686 86.5728 12.8515 86.4847 13.0653C86.3967 13.2792 86.3742 13.5144 86.4201 13.7411C86.4659 13.9678 86.5781 14.1758 86.7424 14.3386C86.9066 14.5015 87.1156 14.6118 87.3427 14.6557C87.5697 14.6996 87.8048 14.675 88.0179 14.5851C88.231 14.4952 88.4125 14.344 88.5396 14.1507C88.6666 13.9575 88.7334 13.7308 88.7313 13.4995C88.7313 13.3467 88.7011 13.1954 88.6423 13.0544C88.5835 12.9133 88.4974 12.7853 88.3888 12.6777C88.2803 12.5701 88.1516 12.4851 88.01 12.4276C87.8684 12.37 87.7169 12.3411 87.5641 12.3424V12.3424Z" fill="#231F20"/>
<path d="M95.1664 15.1742C96.0914 15.1742 96.8412 14.4244 96.8412 13.4995C96.8412 12.5745 96.0914 11.8247 95.1664 11.8247C94.2415 11.8247 93.4917 12.5745 93.4917 13.4995C93.4917 14.4244 94.2415 15.1742 95.1664 15.1742Z" fill="#231F20"/>
<path d="M95.1665 15.6817C94.7345 15.6837 94.3116 15.5575 93.9514 15.3189C93.5912 15.0803 93.3099 14.7402 93.1432 14.3417C92.9764 13.9431 92.9318 13.504 93.0148 13.08C93.0979 12.656 93.3049 12.2662 93.6097 11.96C93.9145 11.6538 94.3033 11.445 94.7269 11.3599C95.1505 11.2749 95.5898 11.3175 95.9891 11.4824C96.3885 11.6473 96.7299 11.927 96.9701 12.286C97.2104 12.6451 97.3386 13.0674 97.3386 13.4995C97.3386 14.0765 97.1101 14.63 96.7031 15.039C96.296 15.448 95.7435 15.6791 95.1665 15.6817V15.6817ZM95.1665 12.3424C94.9348 12.3404 94.7077 12.4074 94.5142 12.5349C94.3207 12.6624 94.1696 12.8445 94.08 13.0582C93.9904 13.2719 93.9664 13.5075 94.0111 13.7348C94.0558 13.9622 94.1672 14.1711 94.331 14.335C94.4949 14.4988 94.7038 14.6102 94.9312 14.6549C95.1585 14.6996 95.3941 14.6756 95.6078 14.586C95.8215 14.4964 96.0037 14.3453 96.1311 14.1518C96.2586 13.9583 96.3256 13.7312 96.3236 13.4995C96.321 13.1934 96.1982 12.9006 95.9818 12.6842C95.7654 12.4678 95.4726 12.345 95.1665 12.3424Z" fill="#231F20"/>
<path d="M102.758 15.1742C103.683 15.1742 104.433 14.4244 104.433 13.4995C104.433 12.5745 103.683 11.8247 102.758 11.8247C101.834 11.8247 101.084 12.5745 101.084 13.4995C101.084 14.4244 101.834 15.1742 102.758 15.1742Z" fill="#231F20"/>
<path d="M102.759 15.6818C102.327 15.6818 101.905 15.5538 101.546 15.314C101.187 15.0742 100.908 14.7334 100.743 14.3346C100.577 13.9359 100.534 13.4971 100.618 13.0738C100.703 12.6505 100.91 12.2616 101.216 11.9564C101.521 11.6512 101.91 11.4434 102.333 11.3592C102.756 11.275 103.195 11.3182 103.594 11.4834C103.993 11.6485 104.333 11.9282 104.573 12.2871C104.813 12.646 104.941 13.0679 104.941 13.4995C104.941 14.0783 104.711 14.6333 104.302 15.0426C103.892 15.4518 103.337 15.6818 102.759 15.6818V15.6818ZM102.759 12.3424C102.527 12.3424 102.301 12.4111 102.109 12.5399C101.917 12.6686 101.767 12.8515 101.679 13.0653C101.591 13.2792 101.569 13.5144 101.615 13.7411C101.661 13.9678 101.773 14.1758 101.937 14.3386C102.101 14.5015 102.31 14.6118 102.537 14.6557C102.764 14.6996 102.999 14.675 103.212 14.5851C103.426 14.4952 103.607 14.344 103.734 14.1507C103.861 13.9575 103.928 13.7308 103.926 13.4995C103.923 13.1917 103.799 12.8974 103.58 12.6807C103.362 12.464 103.066 12.3424 102.759 12.3424V12.3424Z" fill="#231F20"/>
<path d="M93.4916 90.7207C93.357 90.7207 93.2279 90.6672 93.1328 90.5721C93.0376 90.4769 92.9841 90.3478 92.9841 90.2132V18.5745C92.9841 18.4399 93.0376 18.3108 93.1328 18.2157C93.2279 18.1205 93.357 18.067 93.4916 18.067C93.6262 18.067 93.7553 18.1205 93.8505 18.2157C93.9457 18.3108 93.9991 18.4399 93.9991 18.5745V90.2132C93.9991 90.3478 93.9457 90.4769 93.8505 90.5721C93.7553 90.6672 93.6262 90.7207 93.4916 90.7207Z" fill="#231F20"/>
<path d="M121.303 24.36H99.9877C99.8531 24.36 99.724 24.3065 99.6289 24.2113C99.5337 24.1162 99.4802 23.9871 99.4802 23.8525C99.4802 23.7179 99.5337 23.5888 99.6289 23.4936C99.724 23.3984 99.8531 23.345 99.9877 23.345H121.303C121.437 23.345 121.566 23.3984 121.662 23.4936C121.757 23.5888 121.81 23.7179 121.81 23.8525C121.81 23.9871 121.757 24.1162 121.662 24.2113C121.566 24.3065 121.437 24.36 121.303 24.36Z" fill="white"/>
<path d="M133.533 24.36H126.581C126.446 24.36 126.317 24.3065 126.222 24.2113C126.127 24.1162 126.073 23.9871 126.073 23.8525C126.073 23.7179 126.127 23.5888 126.222 23.4936C126.317 23.3984 126.446 23.345 126.581 23.345H133.533C133.668 23.345 133.797 23.3984 133.892 23.4936C133.988 23.5888 134.041 23.7179 134.041 23.8525C134.041 23.9871 133.988 24.1162 133.892 24.2113C133.797 24.3065 133.668 24.36 133.533 24.36Z" fill="#231F20"/>
<path d="M152.412 24.36H137.705C137.57 24.36 137.441 24.3065 137.346 24.2113C137.251 24.1162 137.198 23.9871 137.198 23.8525C137.198 23.7179 137.251 23.5888 137.346 23.4936C137.441 23.3984 137.57 23.345 137.705 23.345H152.412C152.547 23.345 152.676 23.3984 152.771 23.4936C152.866 23.5888 152.92 23.7179 152.92 23.8525C152.92 23.9191 152.907 23.9851 152.881 24.0467C152.856 24.1083 152.818 24.1642 152.771 24.2113C152.724 24.2585 152.668 24.2958 152.607 24.3213C152.545 24.3468 152.479 24.36 152.412 24.36Z" fill="#231F20"/>
<path d="M114.502 30.7748H99.947C99.8124 30.7748 99.6833 30.7213 99.5881 30.6261C99.4929 30.5309 99.4395 30.4019 99.4395 30.2673C99.4395 30.1327 99.4929 30.0036 99.5881 29.9084C99.6833 29.8132 99.8124 29.7598 99.947 29.7598H114.502C114.637 29.7598 114.766 29.8132 114.861 29.9084C114.956 30.0036 115.01 30.1327 115.01 30.2673C115.007 30.401 114.953 30.5286 114.858 30.6232C114.763 30.7179 114.636 30.7722 114.502 30.7748V30.7748Z" fill="white"/>
<path d="M178.995 30.7748H118.927C118.794 30.7722 118.666 30.7179 118.571 30.6232C118.477 30.5286 118.423 30.401 118.42 30.2673C118.42 30.1327 118.473 30.0036 118.569 29.9084C118.664 29.8132 118.793 29.7598 118.927 29.7598H178.995C179.13 29.7598 179.259 29.8132 179.354 29.9084C179.449 30.0036 179.503 30.1327 179.503 30.2673C179.503 30.3339 179.489 30.3999 179.464 30.4615C179.438 30.5231 179.401 30.579 179.354 30.6261C179.307 30.6732 179.251 30.7106 179.189 30.7361C179.128 30.7616 179.062 30.7748 178.995 30.7748Z" fill="#231F20"/>
<path d="M212.906 30.7748H183.583C183.448 30.7748 183.319 30.7213 183.224 30.6261C183.129 30.5309 183.075 30.4019 183.075 30.2673C183.075 30.1327 183.129 30.0036 183.224 29.9084C183.319 29.8132 183.448 29.7598 183.583 29.7598H212.906C213.041 29.7598 213.17 29.8132 213.265 29.9084C213.36 30.0036 213.414 30.1327 213.414 30.2673C213.411 30.401 213.357 30.5286 213.262 30.6232C213.168 30.7179 213.04 30.7722 212.906 30.7748Z" fill="white"/>
<path d="M152.412 36.8851H99.947C99.8124 36.8851 99.6833 36.8316 99.5881 36.7365C99.4929 36.6413 99.4395 36.5122 99.4395 36.3776C99.4395 36.243 99.4929 36.1139 99.5881 36.0188C99.6833 35.9236 99.8124 35.8701 99.947 35.8701H152.412C152.547 35.8701 152.676 35.9236 152.771 36.0188C152.866 36.1139 152.92 36.243 152.92 36.3776C152.92 36.5122 152.866 36.6413 152.771 36.7365C152.676 36.8316 152.547 36.8851 152.412 36.8851Z" fill="white"/>
<path d="M175.037 36.8851H157C156.866 36.8851 156.737 36.8316 156.641 36.7365C156.546 36.6413 156.493 36.5122 156.493 36.3776C156.495 36.2438 156.55 36.1163 156.644 36.0216C156.739 35.927 156.866 35.8727 157 35.8701H175.037C175.171 35.8701 175.3 35.9236 175.396 36.0188C175.491 36.1139 175.544 36.243 175.544 36.3776C175.544 36.5122 175.491 36.6413 175.396 36.7365C175.3 36.8316 175.171 36.8851 175.037 36.8851Z" fill="#231F20"/>
<path d="M107.204 47.9587H99.9267C99.7921 47.9587 99.663 47.9053 99.5678 47.8101C99.4726 47.7149 99.4192 47.5858 99.4192 47.4512C99.4192 47.3166 99.4726 47.1875 99.5678 47.0924C99.663 46.9972 99.7921 46.9437 99.9267 46.9437H107.204C107.338 46.9463 107.466 47.0006 107.56 47.0952C107.655 47.1899 107.709 47.3174 107.712 47.4512C107.712 47.5858 107.658 47.7149 107.563 47.8101C107.468 47.9053 107.339 47.9587 107.204 47.9587Z" fill="white"/>
<path d="M130.052 47.9587H111.65C111.515 47.9587 111.386 47.9053 111.291 47.8101C111.196 47.7149 111.143 47.5858 111.143 47.4512C111.145 47.3174 111.199 47.1899 111.294 47.0952C111.389 47.0006 111.516 46.9463 111.65 46.9437H130.052C130.187 46.9437 130.316 46.9972 130.411 47.0924C130.506 47.1875 130.56 47.3166 130.56 47.4512C130.56 47.5858 130.506 47.7149 130.411 47.8101C130.316 47.9053 130.187 47.9587 130.052 47.9587Z" fill="#231F20"/>
<path d="M115.446 53.6631H99.947C99.8124 53.6631 99.6833 53.6096 99.5881 53.5144C99.4929 53.4193 99.4395 53.2902 99.4395 53.1556C99.4395 53.021 99.4929 52.8919 99.5881 52.7967C99.6833 52.7015 99.8124 52.6481 99.947 52.6481H115.446C115.581 52.6481 115.71 52.7015 115.805 52.7967C115.9 52.8919 115.953 53.021 115.953 53.1556C115.953 53.2902 115.9 53.4193 115.805 53.5144C115.71 53.6096 115.581 53.6631 115.446 53.6631Z" fill="white"/>
<path d="M148.961 53.6631H118.927C118.794 53.6605 118.666 53.6062 118.571 53.5115C118.477 53.4169 118.423 53.2894 118.42 53.1556C118.42 53.021 118.473 52.8919 118.569 52.7967C118.664 52.7015 118.793 52.6481 118.927 52.6481H148.961C149.096 52.6481 149.225 52.7015 149.32 52.7967C149.415 52.8919 149.469 53.021 149.469 53.1556C149.469 53.2902 149.415 53.4193 149.32 53.5144C149.225 53.6096 149.096 53.6631 148.961 53.6631Z" fill="#231F20"/>
<path d="M169.444 53.6631H153.204C153.07 53.6605 152.943 53.6062 152.848 53.5115C152.753 53.4169 152.699 53.2894 152.697 53.1556C152.697 53.021 152.75 52.8919 152.845 52.7967C152.94 52.7015 153.069 52.6481 153.204 52.6481H169.444C169.579 52.6481 169.708 52.7015 169.803 52.7967C169.898 52.8919 169.952 53.021 169.952 53.1556C169.952 53.2902 169.898 53.4193 169.803 53.5144C169.708 53.6096 169.579 53.6631 169.444 53.6631Z" fill="white"/>
<path d="M121.993 59.7733H99.947C99.8124 59.7733 99.6833 59.7198 99.5881 59.6247C99.4929 59.5295 99.4395 59.4004 99.4395 59.2658C99.4395 59.1312 99.4929 59.0021 99.5881 58.9069C99.6833 58.8118 99.8124 58.7583 99.947 58.7583H121.993C122.127 58.7609 122.254 58.8152 122.349 58.9098C122.443 59.0044 122.498 59.132 122.5 59.2658C122.5 59.4004 122.447 59.5295 122.352 59.6247C122.256 59.7198 122.127 59.7733 121.993 59.7733Z" fill="white"/>
<path d="M163.334 59.7733H126.581C126.446 59.7733 126.317 59.7198 126.222 59.6247C126.127 59.5295 126.073 59.4004 126.073 59.2658C126.073 59.1312 126.127 59.0021 126.222 58.9069C126.317 58.8118 126.446 58.7583 126.581 58.7583H163.334C163.468 58.7609 163.595 58.8152 163.69 58.9098C163.784 59.0044 163.839 59.132 163.841 59.2658C163.841 59.4004 163.788 59.5295 163.693 59.6247C163.598 59.7198 163.468 59.7733 163.334 59.7733Z" fill="#231F20"/>
<path d="M198.24 59.7733H168.602C168.467 59.7733 168.338 59.7198 168.243 59.6247C168.148 59.5295 168.094 59.4004 168.094 59.2658C168.097 59.132 168.151 59.0044 168.246 58.9098C168.34 58.8152 168.468 58.7609 168.602 58.7583H198.24C198.374 58.7583 198.503 58.8118 198.599 58.9069C198.694 59.0021 198.747 59.1312 198.747 59.2658C198.747 59.4004 198.694 59.5295 198.599 59.6247C198.503 59.7198 198.374 59.7733 198.24 59.7733Z" fill="white"/>
<path d="M121.993 70.6947H99.947C99.8124 70.6947 99.6833 70.6412 99.5881 70.546C99.4929 70.4509 99.4395 70.3218 99.4395 70.1872C99.4395 70.0526 99.4929 69.9235 99.5881 69.8283C99.6833 69.7332 99.8124 69.6797 99.947 69.6797H121.993C122.127 69.6797 122.256 69.7332 122.352 69.8283C122.447 69.9235 122.5 70.0526 122.5 70.1872C122.498 70.321 122.443 70.4485 122.349 70.5432C122.254 70.6378 122.127 70.6921 121.993 70.6947Z" fill="white"/>
<path d="M133.95 70.6947H126.185C126.05 70.6947 125.921 70.6412 125.826 70.546C125.731 70.4509 125.677 70.3218 125.677 70.1872C125.677 70.0526 125.731 69.9235 125.826 69.8283C125.921 69.7332 126.05 69.6797 126.185 69.6797H133.95C134.084 69.6797 134.213 69.7332 134.308 69.8283C134.404 69.9235 134.457 70.0526 134.457 70.1872C134.454 70.321 134.4 70.4485 134.305 70.5432C134.211 70.6378 134.083 70.6921 133.95 70.6947Z" fill="#231F20"/>
<path d="M153.204 70.6947H137.705C137.57 70.6947 137.441 70.6412 137.346 70.546C137.251 70.4509 137.198 70.3218 137.198 70.1872C137.198 70.0526 137.251 69.9235 137.346 69.8283C137.441 69.7332 137.57 69.6797 137.705 69.6797H153.204C153.339 69.6797 153.468 69.7332 153.563 69.8283C153.658 69.9235 153.712 70.0526 153.712 70.1872C153.712 70.3218 153.658 70.4509 153.563 70.546C153.468 70.6412 153.339 70.6947 153.204 70.6947Z" fill="#231F20"/>
<path d="M114.502 76.3889H99.947C99.8124 76.3889 99.6833 76.3354 99.5881 76.2403C99.4929 76.1451 99.4395 76.016 99.4395 75.8814C99.4395 75.7468 99.4929 75.6177 99.5881 75.5225C99.6833 75.4274 99.8124 75.3739 99.947 75.3739H114.502C114.637 75.3739 114.766 75.4274 114.861 75.5225C114.956 75.6177 115.01 75.7468 115.01 75.8814C115.007 76.0152 114.953 76.1428 114.858 76.2374C114.763 76.332 114.636 76.3863 114.502 76.3889Z" fill="white"/>
<path d="M178.995 76.3889H118.298C118.164 76.3889 118.035 76.3354 117.939 76.2403C117.844 76.1451 117.791 76.016 117.791 75.8814C117.791 75.7468 117.844 75.6177 117.939 75.5225C118.035 75.4274 118.164 75.3739 118.298 75.3739H178.995C179.13 75.3739 179.259 75.4274 179.354 75.5225C179.449 75.6177 179.503 75.7468 179.503 75.8814C179.503 75.948 179.49 76.014 179.464 76.0756C179.439 76.1372 179.401 76.1931 179.354 76.2403C179.307 76.2874 179.251 76.3248 179.189 76.3503C179.128 76.3758 179.062 76.3889 178.995 76.3889Z" fill="#231F20"/>
<path d="M214.794 76.3889H183.583C183.448 76.3889 183.319 76.3354 183.224 76.2403C183.129 76.1451 183.075 76.016 183.075 75.8814C183.075 75.7468 183.129 75.6177 183.224 75.5225C183.319 75.4274 183.448 75.3739 183.583 75.3739H214.794C214.929 75.3739 215.058 75.4274 215.153 75.5225C215.248 75.6177 215.302 75.7468 215.302 75.8814C215.299 76.0152 215.245 76.1428 215.15 76.2374C215.056 76.332 214.928 76.3863 214.794 76.3889Z" fill="#231F20"/>
<path d="M152.412 82.763H98.79C98.6554 82.763 98.5263 82.7096 98.4311 82.6144C98.3359 82.5192 98.2825 82.3901 98.2825 82.2555C98.2825 82.1209 98.3359 81.9919 98.4311 81.8967C98.5263 81.8015 98.6554 81.748 98.79 81.748H152.412C152.547 81.748 152.676 81.8015 152.771 81.8967C152.866 81.9919 152.92 82.1209 152.92 82.2555C152.92 82.3222 152.907 82.3882 152.881 82.4498C152.856 82.5113 152.818 82.5673 152.771 82.6144C152.724 82.6615 152.668 82.6989 152.607 82.7244C152.545 82.7499 152.479 82.763 152.412 82.763Z" fill="white"/>
<path d="M173.453 82.763H157C156.866 82.763 156.737 82.7096 156.641 82.6144C156.546 82.5192 156.493 82.3901 156.493 82.2555C156.495 82.1218 156.55 81.9942 156.644 81.8996C156.739 81.8049 156.866 81.7506 157 81.748H173.453C173.588 81.748 173.717 81.8015 173.812 81.8967C173.907 81.9919 173.961 82.1209 173.961 82.2555C173.961 82.3901 173.907 82.5192 173.812 82.6144C173.717 82.7096 173.588 82.763 173.453 82.763Z" fill="#231F20"/>
<path d="M87.158 25.8927C88.0773 25.8927 88.8226 25.1474 88.8226 24.2281C88.8226 23.3087 88.0773 22.5635 87.158 22.5635C86.2387 22.5635 85.4934 23.3087 85.4934 24.2281C85.4934 25.1474 86.2387 25.8927 87.158 25.8927Z" fill="white"/>
<path d="M87.158 31.9319C88.0773 31.9319 88.8226 31.1866 88.8226 30.2673C88.8226 29.3479 88.0773 28.6027 87.158 28.6027C86.2387 28.6027 85.4934 29.3479 85.4934 30.2673C85.4934 31.1866 86.2387 31.9319 87.158 31.9319Z" fill="white"/>
<path d="M87.158 37.9712C88.0773 37.9712 88.8226 37.2259 88.8226 36.3066C88.8226 35.3872 88.0773 34.642 87.158 34.642C86.2387 34.642 85.4934 35.3872 85.4934 36.3066C85.4934 37.2259 86.2387 37.9712 87.158 37.9712Z" fill="white"/>
<path d="M87.158 49.2275C88.0773 49.2275 88.8226 48.4822 88.8226 47.5629C88.8226 46.6436 88.0773 45.8983 87.158 45.8983C86.2387 45.8983 85.4934 46.6436 85.4934 47.5629C85.4934 48.4822 86.2387 49.2275 87.158 49.2275Z" fill="white"/>
<path d="M87.158 55.2667C88.0773 55.2667 88.8226 54.5214 88.8226 53.6021C88.8226 52.6828 88.0773 51.9375 87.158 51.9375C86.2387 51.9375 85.4934 52.6828 85.4934 53.6021C85.4934 54.5214 86.2387 55.2667 87.158 55.2667Z" fill="white"/>
<path d="M87.158 61.306C88.0773 61.306 88.8226 60.5607 88.8226 59.6414C88.8226 58.7221 88.0773 57.9768 87.158 57.9768C86.2387 57.9768 85.4934 58.7221 85.4934 59.6414C85.4934 60.5607 86.2387 61.306 87.158 61.306Z" fill="white"/>
<path d="M87.158 71.8519C88.0773 71.8519 88.8226 71.1066 88.8226 70.1873C88.8226 69.268 88.0773 68.5227 87.158 68.5227C86.2387 68.5227 85.4934 69.268 85.4934 70.1873C85.4934 71.1066 86.2387 71.8519 87.158 71.8519Z" fill="white"/>
<path d="M87.158 77.8911C88.0773 77.8911 88.8226 77.1458 88.8226 76.2265C88.8226 75.3072 88.0773 74.5619 87.158 74.5619C86.2387 74.5619 85.4934 75.3072 85.4934 76.2265C85.4934 77.1458 86.2387 77.8911 87.158 77.8911Z" fill="white"/>
<path d="M87.158 83.9203C88.0773 83.9203 88.8226 83.175 88.8226 82.2557C88.8226 81.3363 88.0773 80.5911 87.158 80.5911C86.2387 80.5911 85.4934 81.3363 85.4934 82.2557C85.4934 83.175 86.2387 83.9203 87.158 83.9203Z" fill="white"/>
<path d="M57.7028 13.1949H16.5344V49.9481H57.7028V13.1949Z" fill="white"/>
<path d="M57.7028 50.4556H16.5344C16.3998 50.4556 16.2707 50.4022 16.1755 50.307C16.0803 50.2118 16.0269 50.0827 16.0269 49.9481V13.195C16.0269 13.0604 16.0803 12.9313 16.1755 12.8361C16.2707 12.741 16.3998 12.6875 16.5344 12.6875H57.7028C57.8365 12.6901 57.9641 12.7444 58.0587 12.839C58.1534 12.9336 58.2077 13.0612 58.2103 13.195V49.9481C58.2103 50.0827 58.1568 50.2118 58.0616 50.307C57.9664 50.4022 57.8374 50.4556 57.7028 50.4556ZM17.0419 49.4406H57.1953V13.7025H17.0419V49.4406Z" fill="#D1D3D4"/>
<path d="M29.8308 39.0471C29.7068 39.0455 29.5877 38.9985 29.4959 38.9151L22.2995 32.5714C22.1967 32.4766 22.1348 32.3456 22.127 32.206C22.1257 32.0704 22.1766 31.9396 22.2691 31.8406L29.4654 24.2585C29.5126 24.2109 29.5687 24.1732 29.6306 24.1474C29.6924 24.1217 29.7588 24.1084 29.8258 24.1084C29.8927 24.1084 29.9591 24.1217 30.0209 24.1474C30.0828 24.1732 30.1389 24.2109 30.1861 24.2585C30.2333 24.3048 30.2709 24.3601 30.2965 24.4211C30.3222 24.4821 30.3354 24.5476 30.3354 24.6138C30.3354 24.6799 30.3222 24.7454 30.2965 24.8064C30.2709 24.8674 30.2333 24.9227 30.1861 24.969L23.3653 32.1552L30.1658 38.1539C30.2665 38.2437 30.3282 38.3693 30.3376 38.5039C30.3471 38.6385 30.3037 38.7715 30.2165 38.8745C30.1676 38.9283 30.1081 38.9714 30.0417 39.0011C29.9753 39.0308 29.9035 39.0464 29.8308 39.0471V39.0471Z" fill="#D1D3D4"/>
<path d="M42.9853 39.047C42.8802 39.0502 42.7768 39.0207 42.6892 38.9626C42.6016 38.9045 42.5342 38.8207 42.4963 38.7226C42.4585 38.6246 42.452 38.5172 42.4777 38.4153C42.5035 38.3134 42.5602 38.222 42.6402 38.1538L49.4407 32.1551L42.6097 24.9588C42.5625 24.9125 42.5249 24.8572 42.4993 24.7962C42.4737 24.7352 42.4604 24.6697 42.4604 24.6035C42.4604 24.5374 42.4737 24.4719 42.4993 24.4109C42.5249 24.3499 42.5625 24.2946 42.6097 24.2483C42.7063 24.1547 42.8355 24.1023 42.97 24.1023C43.1046 24.1023 43.2338 24.1547 43.3304 24.2483L50.5267 31.8303C50.5731 31.8786 50.6088 31.936 50.6316 31.999C50.6543 32.062 50.6635 32.129 50.6587 32.1957C50.659 32.2647 50.6447 32.3329 50.6167 32.3959C50.5887 32.4589 50.5477 32.5152 50.4963 32.5611L43.2999 38.9049C43.2149 38.9876 43.1035 39.0379 42.9853 39.047V39.047Z" fill="#D1D3D4"/>
<path d="M31.729 41.0263C31.6471 41.0268 31.5666 41.0058 31.4955 40.9654C31.4362 40.9354 31.3836 40.8939 31.3406 40.8432C31.2977 40.7925 31.2653 40.7337 31.2454 40.6704C31.2256 40.607 31.2186 40.5402 31.2249 40.4741C31.2313 40.408 31.2508 40.3438 31.2823 40.2854L40.2144 23.1116C40.2428 23.0481 40.2841 22.9911 40.3355 22.9443C40.3869 22.8974 40.4475 22.8616 40.5133 22.8391C40.5791 22.8166 40.6489 22.8079 40.7183 22.8135C40.7876 22.8191 40.8551 22.839 40.9164 22.8717C40.9778 22.9045 41.0318 22.9496 41.075 23.0041C41.1182 23.0586 41.1498 23.1214 41.1677 23.1887C41.1856 23.2559 41.1895 23.3261 41.1792 23.3949C41.1688 23.4637 41.1445 23.5296 41.1075 23.5886L32.1756 40.7523C32.1331 40.8342 32.069 40.9031 31.9904 40.9514C31.9117 40.9997 31.8213 41.0256 31.729 41.0263Z" fill="#D1D3D4"/>
<path d="M317.441 14.9814H253.781V108.828H317.441V14.9814Z" fill="white"/>
<path d="M317.431 109.336H253.78C253.646 109.336 253.517 109.282 253.422 109.187C253.326 109.092 253.273 108.963 253.273 108.828V14.9814C253.273 14.8468 253.326 14.7177 253.422 14.6225C253.517 14.5273 253.646 14.4739 253.78 14.4739H317.431C317.566 14.4739 317.695 14.5273 317.79 14.6225C317.885 14.7177 317.939 14.8468 317.939 14.9814V108.828C317.939 108.963 317.885 109.092 317.79 109.187C317.695 109.282 317.566 109.336 317.431 109.336ZM254.288 108.321H316.924V15.4889H254.288V108.321Z" fill="#D1D3D4"/>
<path d="M317.431 21.6804H253.78C253.646 21.6804 253.517 21.6269 253.422 21.5318C253.326 21.4366 253.273 21.3075 253.273 21.1729C253.273 21.0383 253.326 20.9092 253.422 20.814C253.517 20.7189 253.646 20.6654 253.78 20.6654H317.431C317.566 20.6654 317.695 20.7189 317.79 20.814C317.885 20.9092 317.939 21.0383 317.939 21.1729C317.939 21.3075 317.885 21.4366 317.79 21.5318C317.695 21.6269 317.566 21.6804 317.431 21.6804Z" fill="#D1D3D4"/>
<path d="M282.474 38.8542H262.306C262.172 38.8542 262.043 38.8007 261.947 38.7055C261.852 38.6103 261.799 38.4813 261.799 38.3467V27.0599C261.799 26.9253 261.852 26.7962 261.947 26.701C262.043 26.6058 262.172 26.5524 262.306 26.5524H282.474C282.609 26.5524 282.738 26.6058 282.833 26.701C282.928 26.7962 282.982 26.9253 282.982 27.0599V38.3467C282.982 38.4813 282.928 38.6103 282.833 38.7055C282.738 38.8007 282.609 38.8542 282.474 38.8542ZM262.814 37.8392H281.967V27.5674H262.814V37.8392Z" fill="#D1D3D4"/>
<path d="M310.844 65.1731H290.676C290.541 65.1731 290.412 65.1197 290.317 65.0245C290.222 64.9293 290.168 64.8002 290.168 64.6656V53.3788C290.168 53.2442 290.222 53.1152 290.317 53.02C290.412 52.9248 290.541 52.8713 290.676 52.8713H310.844C310.978 52.8713 311.107 52.9248 311.203 53.02C311.298 53.1152 311.351 53.2442 311.351 53.3788V64.6656C311.351 64.8002 311.298 64.9293 311.203 65.0245C311.107 65.1197 310.978 65.1731 310.844 65.1731ZM291.183 64.1581H310.336V53.8863H291.183V64.1581Z" fill="#D1D3D4"/>
<path d="M282.474 70.8166H262.306C262.172 70.8166 262.043 70.7631 261.947 70.6679C261.852 70.5727 261.799 70.4437 261.799 70.3091V59.0223C261.799 58.8877 261.852 58.7586 261.947 58.6634C262.043 58.5682 262.172 58.5148 262.306 58.5148H282.474C282.608 58.5174 282.736 58.5717 282.83 58.6663C282.925 58.7609 282.979 58.8885 282.982 59.0223V70.3091C282.982 70.4437 282.928 70.5727 282.833 70.6679C282.738 70.7631 282.609 70.8166 282.474 70.8166V70.8166ZM262.814 69.8016H281.967V59.5298H262.814V69.8016Z" fill="#D1D3D4"/>
<path d="M297.628 100.485H277.46C277.326 100.485 277.197 100.432 277.102 100.336C277.006 100.241 276.953 100.112 276.953 99.9775V88.711C276.953 88.5764 277.006 88.4473 277.102 88.3521C277.197 88.257 277.326 88.2035 277.46 88.2035H297.628C297.762 88.2061 297.89 88.2604 297.984 88.355C298.079 88.4496 298.133 88.5772 298.136 88.711V99.9978C298.131 100.129 298.075 100.253 297.98 100.344C297.886 100.434 297.76 100.485 297.628 100.485ZM277.968 99.47H297.121V89.2185H277.968V99.47Z" fill="#D1D3D4"/>
<path d="M300.765 53.8864C300.63 53.8864 300.501 53.8329 300.406 53.7377C300.311 53.6426 300.257 53.5135 300.257 53.3789V47.5528H272.385C272.251 47.5528 272.122 47.4993 272.027 47.4041C271.931 47.309 271.878 47.1799 271.878 47.0453V38.3467C271.878 38.2121 271.931 38.0831 272.027 37.9879C272.122 37.8927 272.251 37.8392 272.385 37.8392C272.52 37.8392 272.649 37.8927 272.744 37.9879C272.839 38.0831 272.893 38.2121 272.893 38.3467V46.5378H300.765C300.899 46.5404 301.026 46.5947 301.121 46.6893C301.215 46.7839 301.27 46.9115 301.272 47.0453V53.3789C301.272 53.4455 301.259 53.5115 301.234 53.5731C301.208 53.6347 301.171 53.6906 301.124 53.7377C301.077 53.7849 301.021 53.8223 300.959 53.8478C300.897 53.8733 300.831 53.8864 300.765 53.8864Z" fill="#D1D3D4"/>
<path d="M272.385 59.5297C272.251 59.5297 272.122 59.4763 272.027 59.3811C271.931 59.2859 271.878 59.1568 271.878 59.0222V47.0452C271.881 46.9114 271.935 46.7839 272.029 46.6892C272.124 46.5946 272.252 46.5403 272.385 46.5377C272.52 46.5377 272.649 46.5912 272.744 46.6864C272.839 46.7815 272.893 46.9106 272.893 47.0452V59.0222C272.893 59.0889 272.88 59.1549 272.854 59.2164C272.829 59.278 272.791 59.334 272.744 59.3811C272.697 59.4282 272.641 59.4656 272.58 59.4911C272.518 59.5166 272.452 59.5297 272.385 59.5297Z" fill="#D1D3D4"/>
<path d="M288.392 88.7008C288.257 88.7008 288.128 88.6473 288.033 88.5522C287.938 88.457 287.884 88.3279 287.884 88.1933V80.8244H272.385C272.251 80.8244 272.122 80.7709 272.027 80.6758C271.931 80.5806 271.878 80.4515 271.878 80.3169V70.309C271.881 70.1752 271.935 70.0477 272.029 69.953C272.124 69.8584 272.252 69.8041 272.385 69.8015C272.52 69.8015 272.649 69.855 272.744 69.9502C272.839 70.0453 272.893 70.1744 272.893 70.309V79.8094H288.392C288.527 79.8094 288.656 79.8629 288.751 79.9581C288.846 80.0532 288.899 80.1823 288.899 80.3169V88.1933C288.899 88.3279 288.846 88.457 288.751 88.5522C288.656 88.6473 288.527 88.7008 288.392 88.7008Z" fill="#D1D3D4"/>
<path d="M57.7028 18.6455H16.5344C16.3998 18.6455 16.2707 18.592 16.1755 18.4969C16.0803 18.4017 16.0269 18.2726 16.0269 18.138C16.0269 18.0034 16.0803 17.8743 16.1755 17.7791C16.2707 17.684 16.3998 17.6305 16.5344 17.6305H57.7028C57.8365 17.6331 57.9641 17.6874 58.0587 17.782C58.1534 17.8766 58.2077 18.0042 58.2103 18.138C58.2103 18.2726 58.1568 18.4017 58.0616 18.4969C57.9664 18.592 57.8374 18.6455 57.7028 18.6455Z" fill="#D1D3D4"/>
<path d="M63.9349 71.9331H0.507568V137.959H63.9349V71.9331Z" fill="white"/>
<path d="M63.9247 138.466H0.5075C0.372903 138.466 0.243818 138.413 0.148643 138.318C0.0534682 138.223 0 138.093 0 137.959V71.9838C0 71.8492 0.0534682 71.7201 0.148643 71.625C0.243818 71.5298 0.372903 71.4763 0.5075 71.4763H63.9247C64.0593 71.4763 64.1884 71.5298 64.2836 71.625C64.3787 71.7201 64.4322 71.8492 64.4322 71.9838V137.959C64.4322 138.093 64.3787 138.223 64.2836 138.318C64.1884 138.413 64.0593 138.466 63.9247 138.466ZM0.9947 137.451H63.3969V72.4913H1.015L0.9947 137.451Z" fill="#D1D3D4"/>
<path d="M63.9247 78.967H0.5075C0.372903 78.967 0.243818 78.9136 0.148643 78.8184C0.0534682 78.7232 0 78.5941 0 78.4595C0 78.3249 0.0534682 78.1958 0.148643 78.1007C0.243818 78.0055 0.372903 77.952 0.5075 77.952H63.9247C64.0593 77.952 64.1884 78.0055 64.2836 78.1007C64.3787 78.1958 64.4322 78.3249 64.4322 78.4595C64.4322 78.5941 64.3787 78.7232 64.2836 78.8184C64.1884 78.9136 64.0593 78.967 63.9247 78.967Z" fill="#D1D3D4"/>
<path d="M13.8243 84.245H6.0595C5.9249 84.245 5.79582 84.1915 5.70064 84.0963C5.60547 84.0012 5.552 83.8721 5.552 83.7375C5.552 83.6029 5.60547 83.4738 5.70064 83.3786C5.79582 83.2834 5.9249 83.23 6.0595 83.23H13.8243C13.9589 83.23 14.0879 83.2834 14.1831 83.3786C14.2783 83.4738 14.3318 83.6029 14.3318 83.7375C14.3318 83.8721 14.2783 84.0012 14.1831 84.0963C14.0879 84.1915 13.9589 84.245 13.8243 84.245Z" fill="#D1D3D4"/>
<path d="M33.3427 84.245H17.8842C17.7496 84.245 17.6205 84.1915 17.5254 84.0963C17.4302 84.0012 17.3767 83.8721 17.3767 83.7375C17.3793 83.6037 17.4336 83.4761 17.5282 83.3815C17.6228 83.2869 17.7504 83.2326 17.8842 83.23H33.3427C33.4773 83.23 33.6063 83.2834 33.7015 83.3786C33.7967 83.4738 33.8502 83.6029 33.8502 83.7375C33.8502 83.8721 33.7967 84.0012 33.7015 84.0963C33.6063 84.1915 33.4773 84.245 33.3427 84.245Z" fill="#D1D3D4"/>
<path d="M38.0016 90.1218H22.5431C22.4085 90.1218 22.2795 90.0683 22.1843 89.9732C22.0891 89.878 22.0356 89.7489 22.0356 89.6143C22.0356 89.4797 22.0891 89.3506 22.1843 89.2555C22.2795 89.1603 22.4085 89.1068 22.5431 89.1068H38.0016C38.1362 89.1068 38.2653 89.1603 38.3605 89.2555C38.4556 89.3506 38.5091 89.4797 38.5091 89.6143C38.5091 89.7489 38.4556 89.878 38.3605 89.9732C38.2653 90.0683 38.1362 90.1218 38.0016 90.1218Z" fill="#D1D3D4"/>
<path d="M15.631 90.1218H7.8764C7.7418 90.1218 7.61271 90.0683 7.51754 89.9732C7.42236 89.878 7.3689 89.7489 7.3689 89.6143C7.37149 89.4805 7.4258 89.3529 7.52042 89.2583C7.61503 89.1637 7.74261 89.1094 7.8764 89.1068H15.631C15.7648 89.1094 15.8924 89.1637 15.987 89.2583C16.0816 89.3529 16.1359 89.4805 16.1385 89.6143C16.1385 89.7489 16.085 89.878 15.9899 89.9732C15.8947 90.0683 15.7656 90.1218 15.631 90.1218Z" fill="#D1D3D4"/>
<path d="M15.9254 95.9986H9.69329C9.55869 95.9986 9.42961 95.9452 9.33443 95.85C9.23926 95.7548 9.18579 95.6257 9.18579 95.4911C9.18839 95.3574 9.24269 95.2298 9.33731 95.1352C9.43193 95.0405 9.55951 94.9862 9.69329 94.9836H15.9254C16.0592 94.9862 16.1868 95.0405 16.2814 95.1352C16.376 95.2298 16.4303 95.3574 16.4329 95.4911C16.4329 95.6257 16.3794 95.7548 16.2842 95.85C16.1891 95.9452 16.06 95.9986 15.9254 95.9986Z" fill="#D1D3D4"/>
<path d="M40.7623 95.9986H21.4164C21.2818 95.9986 21.1528 95.9452 21.0576 95.85C20.9624 95.7548 20.9089 95.6257 20.9089 95.4911C20.9089 95.3565 20.9624 95.2275 21.0576 95.1323C21.1528 95.0371 21.2818 94.9836 21.4164 94.9836H40.7623C40.8969 94.9836 41.026 95.0371 41.1212 95.1323C41.2164 95.2275 41.2698 95.3565 41.2698 95.4911C41.2698 95.6257 41.2164 95.7548 41.1212 95.85C41.026 95.9452 40.8969 95.9986 40.7623 95.9986Z" fill="#D1D3D4"/>
<path d="M19.2646 101.876H11.5202C11.3856 101.876 11.2565 101.822 11.1613 101.727C11.0662 101.632 11.0127 101.503 11.0127 101.368C11.0127 101.233 11.0662 101.104 11.1613 101.009C11.2565 100.914 11.3856 100.861 11.5202 100.861H19.2646C19.3992 100.861 19.5283 100.914 19.6235 101.009C19.7187 101.104 19.7721 101.233 19.7721 101.368C19.7721 101.503 19.7187 101.632 19.6235 101.727C19.5283 101.822 19.3992 101.876 19.2646 101.876Z" fill="#D1D3D4"/>
<path d="M44.7717 101.876H21.7617C21.6271 101.876 21.498 101.822 21.4028 101.727C21.3076 101.632 21.2542 101.503 21.2542 101.368C21.2542 101.233 21.3076 101.104 21.4028 101.009C21.498 100.914 21.6271 100.861 21.7617 100.861H44.7717C44.9055 100.863 45.0331 100.917 45.1277 101.012C45.2223 101.107 45.2766 101.234 45.2792 101.368C45.2792 101.503 45.2257 101.632 45.1306 101.727C45.0354 101.822 44.9063 101.876 44.7717 101.876Z" fill="#D1D3D4"/>
<path d="M17.2043 107.752H9.45989C9.3253 107.752 9.19621 107.699 9.10104 107.604C9.00586 107.509 8.95239 107.38 8.95239 107.245C8.95239 107.11 9.00586 106.981 9.10104 106.886C9.19621 106.791 9.3253 106.737 9.45989 106.737H17.2043C17.3389 106.737 17.468 106.791 17.5632 106.886C17.6584 106.981 17.7118 107.11 17.7118 107.245C17.7118 107.38 17.6584 107.509 17.5632 107.604C17.468 107.699 17.3389 107.752 17.2043 107.752Z" fill="#D1D3D4"/>
<path d="M32.6525 107.752H20.1782C20.0436 107.752 19.9145 107.699 19.8193 107.604C19.7241 107.509 19.6707 107.38 19.6707 107.245C19.6707 107.11 19.7241 106.981 19.8193 106.886C19.9145 106.791 20.0436 106.737 20.1782 106.737H32.6525C32.7871 106.737 32.9162 106.791 33.0114 106.886C33.1065 106.981 33.16 107.11 33.16 107.245C33.16 107.38 33.1065 107.509 33.0114 107.604C32.9162 107.699 32.7871 107.752 32.6525 107.752Z" fill="#D1D3D4"/>
<path d="M49.8974 107.752H37.423C37.2884 107.752 37.1593 107.699 37.0642 107.604C36.969 107.509 36.9155 107.38 36.9155 107.245C36.9155 107.11 36.969 106.981 37.0642 106.886C37.1593 106.791 37.2884 106.737 37.423 106.737H49.8974C50.032 106.737 50.1611 106.791 50.2562 106.886C50.3514 106.981 50.4049 107.11 50.4049 107.245C50.4049 107.38 50.3514 107.509 50.2562 107.604C50.1611 107.699 50.032 107.752 49.8974 107.752Z" fill="#D1D3D4"/>
<path d="M12.1293 113.68H9.45989C9.3253 113.68 9.19621 113.627 9.10104 113.531C9.00586 113.436 8.95239 113.307 8.95239 113.173C8.95239 113.038 9.00586 112.909 9.10104 112.814C9.19621 112.719 9.3253 112.665 9.45989 112.665H12.1293C12.2639 112.665 12.393 112.719 12.4882 112.814C12.5834 112.909 12.6368 113.038 12.6368 113.173C12.6368 113.307 12.5834 113.436 12.4882 113.531C12.393 113.627 12.2639 113.68 12.1293 113.68Z" fill="#D1D3D4"/>
<path d="M32.6525 113.68H16.6764C16.5418 113.68 16.4128 113.627 16.3176 113.531C16.2224 113.436 16.1689 113.307 16.1689 113.173C16.1715 113.039 16.2258 112.911 16.3205 112.817C16.4151 112.722 16.5427 112.668 16.6764 112.665H32.6525C32.7871 112.665 32.9162 112.719 33.0114 112.814C33.1066 112.909 33.16 113.038 33.16 113.173C33.16 113.307 33.1066 113.436 33.0114 113.531C32.9162 113.627 32.7871 113.68 32.6525 113.68Z" fill="#D1D3D4"/>
<path d="M38.9455 113.68H34.4897C34.3551 113.68 34.226 113.627 34.1308 113.531C34.0356 113.436 33.9822 113.307 33.9822 113.173C33.9822 113.038 34.0356 112.909 34.1308 112.814C34.226 112.719 34.3551 112.665 34.4897 112.665H38.9455C39.0801 112.665 39.2092 112.719 39.3044 112.814C39.3996 112.909 39.453 113.038 39.453 113.173C39.453 113.307 39.3996 113.436 39.3044 113.531C39.2092 113.627 39.0801 113.68 38.9455 113.68Z" fill="#D1D3D4"/>
<path d="M13.6518 119.506H9.45989C9.3253 119.506 9.19621 119.453 9.10104 119.357C9.00586 119.262 8.95239 119.133 8.95239 118.999C8.95239 118.864 9.00586 118.735 9.10104 118.64C9.19621 118.545 9.3253 118.491 9.45989 118.491H13.6518C13.7864 118.491 13.9155 118.545 14.0107 118.64C14.1059 118.735 14.1593 118.864 14.1593 118.999C14.1593 119.133 14.1059 119.262 14.0107 119.357C13.9155 119.453 13.7864 119.506 13.6518 119.506Z" fill="#D1D3D4"/>
<path d="M36.5602 119.506H17.6C17.4654 119.506 17.3363 119.453 17.2412 119.357C17.146 119.262 17.0925 119.133 17.0925 118.999C17.0951 118.865 17.1494 118.737 17.244 118.643C17.3387 118.548 17.4662 118.494 17.6 118.491H36.5602C36.6948 118.491 36.8239 118.545 36.9191 118.64C37.0143 118.735 37.0677 118.864 37.0677 118.999C37.0677 119.133 37.0143 119.262 36.9191 119.357C36.8239 119.453 36.6948 119.506 36.5602 119.506Z" fill="#D1D3D4"/>
<path d="M46.1826 119.506H38.4382C38.3036 119.506 38.1745 119.453 38.0793 119.357C37.9841 119.262 37.9307 119.133 37.9307 118.999C37.9307 118.864 37.9841 118.735 38.0793 118.64C38.1745 118.545 38.3036 118.491 38.4382 118.491H46.1826C46.3172 118.491 46.4463 118.545 46.5415 118.64C46.6366 118.735 46.6901 118.864 46.6901 118.999C46.6901 119.133 46.6366 119.262 46.5415 119.357C46.4463 119.453 46.3172 119.506 46.1826 119.506Z" fill="#D1D3D4"/>
<path d="M11.7943 125.383H7.643C7.5084 125.383 7.37932 125.329 7.28414 125.234C7.18897 125.139 7.1355 125.01 7.1355 124.875C7.1355 124.741 7.18897 124.612 7.28414 124.517C7.37932 124.421 7.5084 124.368 7.643 124.368H11.7943C11.9281 124.371 12.0557 124.425 12.1503 124.519C12.2449 124.614 12.2992 124.742 12.3018 124.875C12.3018 125.01 12.2484 125.139 12.1532 125.234C12.058 125.329 11.9289 125.383 11.7943 125.383Z" fill="#D1D3D4"/>
<path d="M34.4897 125.383H16.5344C16.3998 125.383 16.2707 125.329 16.1755 125.234C16.0803 125.139 16.0269 125.01 16.0269 124.875C16.0295 124.742 16.0838 124.614 16.1784 124.519C16.273 124.425 16.4006 124.371 16.5344 124.368H34.4897C34.6243 124.368 34.7534 124.421 34.8486 124.517C34.9437 124.612 34.9972 124.741 34.9972 124.875C34.9972 125.01 34.9437 125.139 34.8486 125.234C34.7534 125.329 34.6243 125.383 34.4897 125.383Z" fill="#D1D3D4"/>
<path d="M15.3874 131.26H7.643C7.5084 131.26 7.37932 131.206 7.28414 131.111C7.18897 131.016 7.1355 130.887 7.1355 130.752C7.1355 130.618 7.18897 130.489 7.28414 130.394C7.37932 130.298 7.5084 130.245 7.643 130.245H15.3874C15.522 130.245 15.6511 130.298 15.7463 130.394C15.8415 130.489 15.8949 130.618 15.8949 130.752C15.8949 130.887 15.8415 131.016 15.7463 131.111C15.6511 131.206 15.522 131.26 15.3874 131.26Z" fill="#D1D3D4"/>
<path d="M58.3727 101.876H47.8979C47.7633 101.876 47.6342 101.822 47.539 101.727C47.4438 101.632 47.3904 101.503 47.3904 101.368C47.3904 101.233 47.4438 101.104 47.539 101.009C47.6342 100.914 47.7633 100.861 47.8979 100.861H58.3727C58.5073 100.861 58.6364 100.914 58.7315 101.009C58.8267 101.104 58.8802 101.233 58.8802 101.368C58.8802 101.503 58.8267 101.632 58.7315 101.727C58.6364 101.822 58.5073 101.876 58.3727 101.876Z" fill="#D1D3D4"/>
<path d="M42.691 84.245C37.4434 84.245 37.3318 84.245 37.2709 84.245C37.1435 84.2052 37.037 84.1169 36.9743 83.9991C36.9116 83.8813 36.8978 83.7436 36.9359 83.6157C36.9692 83.4983 37.0445 83.3973 37.1474 83.3318C37.2503 83.2663 37.3738 83.2409 37.4942 83.2605C38.1133 83.2605 48.2532 83.2605 54.9522 83.2605C55.0868 83.2605 55.2159 83.3139 55.311 83.4091C55.4062 83.5043 55.4597 83.6334 55.4597 83.768C55.4597 83.9026 55.4062 84.0316 55.311 84.1268C55.2159 84.222 55.0868 84.2755 54.9522 84.2755C49.1768 84.245 45.2894 84.245 42.691 84.245Z" fill="#D1D3D4"/>
<path d="M44.4062 125.383H36.5602C36.4256 125.383 36.2966 125.329 36.2014 125.234C36.1062 125.139 36.0527 125.01 36.0527 124.875C36.0553 124.742 36.1096 124.614 36.2043 124.519C36.2989 124.425 36.4265 124.371 36.5602 124.368H44.4062C44.54 124.371 44.6675 124.425 44.7622 124.519C44.8568 124.614 44.9111 124.742 44.9137 124.875C44.9137 125.01 44.8602 125.139 44.765 125.234C44.6699 125.329 44.5408 125.383 44.4062 125.383Z" fill="#D1D3D4"/>
<path d="M26.4205 131.26H20.6452C20.5106 131.26 20.3815 131.206 20.2863 131.111C20.1912 131.016 20.1377 130.887 20.1377 130.752C20.1403 130.619 20.1946 130.491 20.2892 130.396C20.3838 130.302 20.5114 130.247 20.6452 130.245H26.4205C26.5543 130.247 26.6819 130.302 26.7765 130.396C26.8711 130.491 26.9254 130.619 26.928 130.752C26.928 130.887 26.8746 131.016 26.7794 131.111C26.6842 131.206 26.5551 131.26 26.4205 131.26Z" fill="#D1D3D4"/>
<path d="M42.3154 131.26H28.6027C28.4681 131.26 28.339 131.206 28.2439 131.111C28.1487 131.016 28.0952 130.887 28.0952 130.752C28.0978 130.619 28.1521 130.491 28.2467 130.396C28.3414 130.302 28.4689 130.247 28.6027 130.245H42.3154C42.4492 130.247 42.5767 130.302 42.6714 130.396C42.766 130.491 42.8203 130.619 42.8229 130.752C42.8229 130.887 42.7694 131.016 42.6742 131.111C42.579 131.206 42.45 131.26 42.3154 131.26Z" fill="#D1D3D4"/>
<path d="M282.982 171.647C297.12 171.647 308.58 160.186 308.58 146.048C308.58 131.911 297.12 120.45 282.982 120.45C268.845 120.45 257.384 131.911 257.384 146.048C257.384 160.186 268.845 171.647 282.982 171.647Z" fill="white"/>
<path d="M282.982 172.154C277.819 172.154 272.772 170.623 268.478 167.755C264.185 164.886 260.839 160.809 258.863 156.039C256.888 151.268 256.371 146.019 257.378 140.955C258.385 135.891 260.872 131.24 264.522 127.589C268.173 123.938 272.825 121.451 277.889 120.444C282.953 119.437 288.202 119.954 292.972 121.93C297.743 123.906 301.82 127.252 304.688 131.545C307.557 135.838 309.088 140.885 309.088 146.048C309.08 152.97 306.327 159.605 301.433 164.499C296.539 169.393 289.903 172.146 282.982 172.154V172.154ZM282.982 120.968C278.019 120.968 273.168 122.439 269.041 125.197C264.915 127.954 261.699 131.874 259.8 136.459C257.901 141.044 257.405 146.09 258.374 150.957C259.343 155.825 261.734 160.295 265.244 163.804C268.754 167.313 273.225 169.701 278.093 170.668C282.961 171.635 288.006 171.137 292.591 169.236C297.175 167.336 301.093 164.118 303.849 159.991C306.605 155.863 308.075 151.011 308.073 146.048C308.065 139.397 305.418 133.021 300.714 128.319C296.01 123.617 289.633 120.973 282.982 120.968V120.968Z" fill="#231F20"/>
<path d="M294.226 164.744L294.235 164.738C295.438 164.041 295.847 162.501 295.149 161.298L292.063 155.978C291.365 154.775 289.825 154.366 288.622 155.063L288.613 155.069C287.411 155.766 287.002 157.307 287.699 158.509L290.786 163.829C291.483 165.032 293.024 165.441 294.226 164.744Z" fill="white"/>
<path d="M292.949 165.597C292.685 165.599 292.422 165.565 292.168 165.496C291.783 165.395 291.422 165.218 291.107 164.976C290.791 164.734 290.527 164.431 290.331 164.085L287.286 158.776C286.886 158.081 286.777 157.256 286.982 156.48C287.187 155.705 287.69 155.042 288.382 154.635C289.077 154.236 289.902 154.127 290.678 154.332C291.453 154.537 292.116 155.04 292.523 155.731L295.568 161.05C295.967 161.747 296.074 162.573 295.867 163.348C295.66 164.124 295.155 164.786 294.462 165.191C294.001 165.456 293.48 165.596 292.949 165.597V165.597ZM289.904 155.295C289.549 155.295 289.2 155.386 288.889 155.559C288.428 155.83 288.093 156.272 287.956 156.789C287.819 157.306 287.892 157.856 288.158 158.32L291.203 163.628C291.503 164.023 291.937 164.294 292.423 164.391C292.91 164.488 293.414 164.404 293.843 164.154C294.271 163.904 294.593 163.507 294.748 163.036C294.903 162.565 294.881 162.054 294.685 161.598L291.64 156.29C291.374 155.827 290.936 155.488 290.422 155.346C290.252 155.309 290.078 155.292 289.904 155.295V155.295Z" fill="#231F20"/>
<path d="M282.982 161.426C291.856 161.426 299.049 154.232 299.049 145.358C299.049 136.484 291.856 129.291 282.982 129.291C274.108 129.291 266.915 136.484 266.915 145.358C266.915 154.232 274.108 161.426 282.982 161.426Z" fill="white"/>
<path d="M283.012 161.943C281.57 161.943 280.133 161.755 278.739 161.385C276.632 160.831 274.655 159.866 272.923 158.543C271.192 157.221 269.739 155.568 268.65 153.681V153.681C266.82 150.525 266.083 146.853 266.553 143.234C267.023 139.616 268.673 136.254 271.248 133.669C273.823 131.085 277.18 129.422 280.796 128.939C284.412 128.456 288.087 129.18 291.25 130.999C294.414 132.817 296.888 135.628 298.291 138.996C299.694 142.364 299.946 146.101 299.008 149.627C298.071 153.153 295.996 156.272 293.106 158.498C290.215 160.725 286.671 161.936 283.023 161.943H283.012ZM283.012 129.808C280.282 129.811 277.601 130.533 275.238 131.901C272.875 133.268 270.914 135.234 269.552 137.6C268.19 139.967 267.475 142.65 267.479 145.38C267.483 148.11 268.205 150.791 269.574 153.153V153.153C270.941 155.519 272.907 157.483 275.274 158.848C277.642 160.213 280.326 160.93 283.059 160.928C285.792 160.926 288.475 160.204 290.84 158.835C293.205 157.467 295.168 155.499 296.531 153.131C297.895 150.763 298.61 148.077 298.606 145.345C298.602 142.612 297.878 139.929 296.508 137.565C295.138 135.201 293.169 133.239 290.8 131.878C288.431 130.516 285.745 129.802 283.012 129.808V129.808Z" fill="#231F20"/>
<path d="M282.982 158.543C290.264 158.543 296.167 152.64 296.167 145.358C296.167 138.076 290.264 132.173 282.982 132.173C275.7 132.173 269.797 138.076 269.797 145.358C269.797 152.64 275.7 158.543 282.982 158.543Z" fill="black"/>
</svg>
