<svg width="19" height="19" viewBox="0 0 19 19" fill="none" xmlns="http://www.w3.org/2000/svg">
<path d="M9.49111 18.7422C14.4745 18.7422 18.5878 14.6289 18.5878 9.6543C18.5878 4.67969 14.4657 0.566406 9.48232 0.566406C4.50772 0.566406 0.403223 4.67969 0.403223 9.6543C0.403223 14.6289 4.5165 18.7422 9.49111 18.7422ZM9.49111 16.9316C5.45693 16.9316 2.23135 13.6885 2.23135 9.6543C2.23135 5.62012 5.45693 2.38574 9.48232 2.38574C13.5165 2.38574 16.7597 5.62012 16.7685 9.6543C16.7772 13.6885 13.5253 16.9316 9.49111 16.9316ZM6.16006 10.498H12.8134C13.3407 10.498 13.7187 10.1904 13.7187 9.68066C13.7187 9.16211 13.3583 8.8457 12.8134 8.8457H6.16006C5.62393 8.8457 5.25479 9.16211 5.25479 9.68066C5.25479 10.1904 5.63272 10.498 6.16006 10.498Z" fill="#1C1C1E"/>
</svg>
